<svg width="700" height="440" viewBox="0 0 680 440" xmlns="http://www.w3.org/2000/svg">
<defs>
<marker id="arrow" viewBox="0 0 10 10" refX="8" refY="5" markerWidth="6" markerHeight="6" orient="auto-start-reverse"><path d="M2 1L8 5L2 9" fill="none" stroke="#5F5E5A" stroke-width="1.5" stroke-linecap="round" stroke-linejoin="round"/></marker>
</defs>
<rect width="680" height="440" fill="#ffffff"/>

<rect x="40" y="40" width="130" height="44" rx="8" fill="#F1EFE8" stroke="#5F5E5A" stroke-width="0.5"/>
<text x="105" y="66" text-anchor="middle" font-family="Arial" font-size="14" font-weight="500" fill="#2C2C2A">Source</text>
<rect x="190" y="40" width="130" height="44" rx="8" fill="#F1EFE8" stroke="#5F5E5A" stroke-width="0.5"/>
<text x="255" y="66" text-anchor="middle" font-family="Arial" font-size="14" font-weight="500" fill="#2C2C2A">Bronze</text>
<rect x="340" y="40" width="130" height="44" rx="8" fill="#F1EFE8" stroke="#5F5E5A" stroke-width="0.5"/>
<text x="405" y="66" text-anchor="middle" font-family="Arial" font-size="14" font-weight="500" fill="#2C2C2A">Silver</text>
<rect x="490" y="40" width="130" height="44" rx="8" fill="#F1EFE8" stroke="#5F5E5A" stroke-width="0.5"/>
<text x="555" y="66" text-anchor="middle" font-family="Arial" font-size="14" font-weight="500" fill="#2C2C2A">Gold</text>

<line x1="170" y1="62" x2="188" y2="62" stroke="#5F5E5A" stroke-width="1.5" marker-end="url(#arrow)"/>
<line x1="320" y1="62" x2="338" y2="62" stroke="#5F5E5A" stroke-width="1.5" marker-end="url(#arrow)"/>
<line x1="470" y1="62" x2="488" y2="62" stroke="#5F5E5A" stroke-width="1.5" marker-end="url(#arrow)"/>

<line x1="105" y1="84" x2="105" y2="148" stroke="#5F5E5A" stroke-width="1.5" marker-end="url(#arrow)"/>
<line x1="255" y1="84" x2="255" y2="148" stroke="#5F5E5A" stroke-width="1.5" marker-end="url(#arrow)"/>
<line x1="405" y1="84" x2="405" y2="148" stroke="#5F5E5A" stroke-width="1.5" marker-end="url(#arrow)"/>
<line x1="555" y1="84" x2="555" y2="148" stroke="#5F5E5A" stroke-width="1.5" marker-end="url(#arrow)"/>

<rect x="40" y="150" width="130" height="56" rx="10" fill="#E1F5EE" stroke="#0F6E56" stroke-width="0.5"/>
<text x="105" y="170" text-anchor="middle" font-family="Arial" font-size="14" font-weight="500" fill="#085041">Khối ledger</text>
<text x="105" y="188" text-anchor="middle" font-family="Arial" font-size="12" fill="#0F6E56">Hash &amp; lineage</text>

<rect x="190" y="150" width="130" height="56" rx="10" fill="#E1F5EE" stroke="#0F6E56" stroke-width="0.5"/>
<text x="255" y="170" text-anchor="middle" font-family="Arial" font-size="14" font-weight="500" fill="#085041">Khối ledger</text>
<text x="255" y="188" text-anchor="middle" font-family="Arial" font-size="12" fill="#0F6E56">Hash &amp; lineage</text>

<rect x="340" y="150" width="130" height="56" rx="10" fill="#E1F5EE" stroke="#0F6E56" stroke-width="0.5"/>
<text x="405" y="170" text-anchor="middle" font-family="Arial" font-size="14" font-weight="500" fill="#085041">Khối ledger</text>
<text x="405" y="188" text-anchor="middle" font-family="Arial" font-size="12" fill="#0F6E56">Hash &amp; lineage</text>

<rect x="490" y="150" width="130" height="56" rx="10" fill="#E1F5EE" stroke="#0F6E56" stroke-width="0.5"/>
<text x="555" y="170" text-anchor="middle" font-family="Arial" font-size="14" font-weight="500" fill="#085041">Khối ledger</text>
<text x="555" y="188" text-anchor="middle" font-family="Arial" font-size="12" fill="#0F6E56">Hash &amp; lineage</text>

<line x1="170" y1="178" x2="188" y2="178" stroke="#0F6E56" stroke-width="1.5" marker-end="url(#arrow)"/>
<line x1="320" y1="178" x2="338" y2="178" stroke="#0F6E56" stroke-width="1.5" marker-end="url(#arrow)"/>
<line x1="470" y1="178" x2="488" y2="178" stroke="#0F6E56" stroke-width="1.5" marker-end="url(#arrow)"/>

<line x1="340" y1="206" x2="340" y2="258" stroke="#5F5E5A" stroke-width="1.5" marker-end="url(#arrow)"/>

<rect x="190" y="260" width="300" height="56" rx="10" fill="#EEEDFE" stroke="#534AB7" stroke-width="0.5"/>
<text x="340" y="280" text-anchor="middle" font-family="Arial" font-size="14" font-weight="500" fill="#26215C">Verification engine</text>
<text x="340" y="298" text-anchor="middle" font-family="Arial" font-size="12" fill="#3C3489">Tính lại hash, so khớp ledger</text>

<line x1="340" y1="316" x2="340" y2="354" stroke="#5F5E5A" stroke-width="1.5" marker-end="url(#arrow)"/>

<rect x="210" y="356" width="260" height="44" rx="8" fill="#FAECE7" stroke="#993C1D" stroke-width="0.5"/>
<text x="340" y="382" text-anchor="middle" font-family="Arial" font-size="14" font-weight="500" fill="#4A1B0C">Kết quả xác minh</text>
</svg>
