<svg width="700" height="652" viewBox="0 0 680 652" xmlns="http://www.w3.org/2000/svg">
<defs>
<marker id="arrow" viewBox="0 0 10 10" refX="8" refY="5" markerWidth="6" markerHeight="6" orient="auto-start-reverse"><path d="M2 1L8 5L2 9" fill="none" stroke="#5F5E5A" stroke-width="1.5" stroke-linecap="round" stroke-linejoin="round"/></marker>
</defs>
<rect width="680" height="652" fill="#ffffff"/>

<rect x="140" y="40" width="400" height="44" rx="8" fill="#F1EFE8" stroke="#5F5E5A" stroke-width="0.5"/>
<text x="340" y="66" text-anchor="middle" font-family="Arial" font-size="14" font-weight="500" fill="#2C2C2A">Khởi tạo môi trường &amp; Delta tables</text>
<line x1="340" y1="84" x2="340" y2="112" stroke="#5F5E5A" stroke-width="1.5" marker-end="url(#arrow)"/>

<rect x="140" y="114" width="400" height="44" rx="8" fill="#F1EFE8" stroke="#5F5E5A" stroke-width="0.5"/>
<text x="340" y="140" text-anchor="middle" font-family="Arial" font-size="14" font-weight="500" fill="#2C2C2A">Sinh dữ liệu synthetic (seed cố định)</text>
<line x1="340" y1="158" x2="340" y2="186" stroke="#5F5E5A" stroke-width="1.5" marker-end="url(#arrow)"/>

<rect x="140" y="188" width="400" height="44" rx="8" fill="#E1F5EE" stroke="#0F6E56" stroke-width="0.5"/>
<text x="340" y="214" text-anchor="middle" font-family="Arial" font-size="14" font-weight="500" fill="#085041">Chạy pipeline baseline &amp; treatment</text>
<line x1="340" y1="232" x2="340" y2="260" stroke="#5F5E5A" stroke-width="1.5" marker-end="url(#arrow)"/>

<rect x="140" y="262" width="400" height="44" rx="8" fill="#E1F5EE" stroke="#0F6E56" stroke-width="0.5"/>
<text x="340" y="288" text-anchor="middle" font-family="Arial" font-size="14" font-weight="500" fill="#085041">Verify điều kiện sạch (clean run)</text>
<line x1="340" y1="306" x2="340" y2="334" stroke="#5F5E5A" stroke-width="1.5" marker-end="url(#arrow)"/>

<rect x="140" y="336" width="400" height="44" rx="8" fill="#E1F5EE" stroke="#0F6E56" stroke-width="0.5"/>
<text x="340" y="362" text-anchor="middle" font-family="Arial" font-size="14" font-weight="500" fill="#085041">Áp dụng một tamper scenario</text>
<line x1="340" y1="380" x2="340" y2="408" stroke="#5F5E5A" stroke-width="1.5" marker-end="url(#arrow)"/>

<rect x="140" y="410" width="400" height="44" rx="8" fill="#E1F5EE" stroke="#0F6E56" stroke-width="0.5"/>
<text x="340" y="436" text-anchor="middle" font-family="Arial" font-size="14" font-weight="500" fill="#085041">Verify lại: đo detection &amp; traceability</text>
<line x1="340" y1="454" x2="340" y2="482" stroke="#5F5E5A" stroke-width="1.5" marker-end="url(#arrow)"/>

<rect x="140" y="484" width="400" height="44" rx="8" fill="#F1EFE8" stroke="#5F5E5A" stroke-width="0.5"/>
<text x="340" y="510" text-anchor="middle" font-family="Arial" font-size="14" font-weight="500" fill="#2C2C2A">Reset baseline trước scenario tiếp theo</text>
<line x1="340" y1="528" x2="340" y2="566" stroke="#5F5E5A" stroke-width="1.5" marker-end="url(#arrow)"/>
<text x="340" y="550" text-anchor="middle" font-family="Arial" font-size="12" fill="#5F5E5A">&#8635; lặp lại từ bước 5 nếu còn tamper scenario</text>

<rect x="140" y="568" width="400" height="44" rx="8" fill="#EEEDFE" stroke="#534AB7" stroke-width="0.5"/>
<text x="340" y="594" text-anchor="middle" font-family="Arial" font-size="14" font-weight="500" fill="#26215C">Chạy benchmark (1K, 5K, 10K, 50K)</text>
</svg>
